<svg id="Group_2664" data-name="Group 2664" xmlns="http://www.w3.org/2000/svg" width="40.699" height="47.815" viewBox="0 0 40.699 47.815">
  <path id="Path_39" data-name="Path 39" d="M4159.066,2221.705c4.3-.076,3.806,6.114,3.806,6.114h0v24.191a6.518,6.518,0,0,1-6.5-6.461v-17.729h-6.194a6.124,6.124,0,0,1-6.141-6.106v-.007Z" transform="translate(-4144.04 -2204.194)" fill-rule="evenodd"/>
  <path id="Path_40" data-name="Path 40" d="M4148.13,1293.641a6.517,6.517,0,0,1,6.5-6.461h27.668a6.518,6.518,0,0,1,6.5,6.461Z" transform="translate(-4148.092 -1279.138)" fill-rule="evenodd"/>
  <path id="Path_41" data-name="Path 41" d="M6505.723,2221.705c-4.3-.076-3.806,6.114-3.806,6.114h0v24.191a6.518,6.518,0,0,0,6.5-6.462v-17.729h6.2a6.124,6.124,0,0,0,6.14-6.106v-.008h-15.025Z" transform="translate(-6480.211 -2204.194)" fill-rule="evenodd"/>
  <path id="Path_42" data-name="Path 42" d="M5292.54,419.366c0-1.823.581-6.678,3.133-6.46h13.341c2.49,0,3.424,4.658,3.132,6.46H5292.54Z" transform="translate(-5281.976 -412.899)" fill-rule="evenodd"/>
</svg>
